<svg width="30" height="32" viewBox="0 0 30 32" fill="none" xmlns="http://www.w3.org/2000/svg">
<path d="M24.0532 5.96007C23.1587 6.01119 22.2615 5.93941 21.3865 5.74674C20.3311 5.38534 19.344 4.84897 18.4665 4.16007C17.7159 3.62793 17.003 3.0443 16.3332 2.41341C16.0492 2.14815 15.6751 2.00061 15.2865 2.00061C14.8979 2.00061 14.5238 2.14815 14.2399 2.41341C13.5878 3.02435 12.9023 3.59857 12.1865 4.13341C11.3036 4.83136 10.3128 5.38079 9.2532 5.76007C8.25659 5.98526 7.23279 6.06608 6.2132 6.00007C5.37834 5.9655 4.54599 5.88538 3.71986 5.76007C3.51799 5.73015 3.31216 5.74118 3.11464 5.79251C2.91712 5.84384 2.73197 5.93442 2.57021 6.05885C2.40845 6.18328 2.2734 6.33901 2.17313 6.51675C2.07285 6.6945 2.00939 6.89061 1.98653 7.09341C1.91986 7.73341 1.74653 9.40007 1.66653 11.2534C1.55442 13.1051 1.67085 14.9635 2.0132 16.7867C2.97859 19.8074 4.75413 22.5053 7.14653 24.5867C9.04811 26.3804 11.1101 27.9961 13.3065 29.4134C13.8952 29.8176 14.5925 30.0339 15.3065 30.0339C16.0206 30.0339 16.7179 29.8176 17.3065 29.4134C19.3865 27.9591 21.3321 26.3215 23.1199 24.5201C25.3722 22.4234 27.0402 19.7766 27.9599 16.8401" stroke="#1A202C" stroke-width="2.5" stroke-linecap="round" stroke-linejoin="round"/>
<path d="M13.6667 14.6667L17.4801 18.48C17.5038 18.5059 17.5327 18.5265 17.5648 18.5406C17.5969 18.5548 17.6316 18.5621 17.6667 18.5621C17.7019 18.5621 17.7366 18.5548 17.7687 18.5406C17.8008 18.5265 17.8297 18.5059 17.8534 18.48L28.3334 8" stroke="#3563E9" stroke-width="2.5" stroke-linecap="round" stroke-linejoin="round"/>
</svg>
