<svg width="32" height="20" viewBox="0 0 32 20" fill="none" xmlns="http://www.w3.org/2000/svg">
<path d="M20.3255 2.13892H11.6733V17.8611H20.3255V2.13892Z" fill="#FF5F00"/>
<path d="M12.2229 9.99998C12.2229 6.80554 13.7062 3.9722 15.9859 2.13887C14.3104 0.805537 12.1955 -1.90735e-05 9.88821 -1.90735e-05C4.42223 -1.90735e-05 0 4.4722 0 9.99998C0 15.5278 4.42223 20 9.88821 20C12.1955 20 14.3104 19.1944 15.9859 17.8611C13.7062 16.0555 12.2229 13.1944 12.2229 9.99998Z" fill="#EB001B"/>
<path d="M32.0001 10C32.0001 15.5278 27.5779 20 22.1119 20C19.8046 20 17.6897 19.1944 16.0142 17.8611C18.3214 16.0278 19.7772 13.1944 19.7772 10C19.7772 6.80556 18.2939 3.97222 16.0142 2.13889C17.6897 0.805556 19.8046 0 22.1119 0C27.5779 0 32.0001 4.5 32.0001 10Z" fill="#F79E1B"/>
</svg>
