<svg width="24" height="24" viewBox="0 0 24 24" fill="none" xmlns="http://www.w3.org/2000/svg">
<path d="M9 2C6.38 2 4.25 4.13 4.25 6.75C4.25 9.32 6.26 11.4 8.88 11.49C8.96 11.48 9.04 11.48 9.1 11.49C9.12 11.49 9.13 11.49 9.15 11.49C9.16 11.49 9.16 11.49 9.17 11.49C11.73 11.4 13.74 9.32 13.75 6.75C13.75 4.13 11.62 2 9 2Z" fill="#90A3BF"/>
<path d="M14.08 14.1499C11.29 12.2899 6.73996 12.2899 3.92996 14.1499C2.65996 14.9999 1.95996 16.1499 1.95996 17.3799C1.95996 18.6099 2.65996 19.7499 3.91996 20.5899C5.31996 21.5299 7.15996 21.9999 8.99996 21.9999C10.84 21.9999 12.68 21.5299 14.08 20.5899C15.34 19.7399 16.04 18.5999 16.04 17.3599C16.03 16.1299 15.34 14.9899 14.08 14.1499Z" fill="#90A3BF"/>
<path d="M19.9904 7.3401C20.1504 9.2801 18.7704 10.9801 16.8604 11.2101C16.8504 11.2101 16.8504 11.2101 16.8404 11.2101H16.8104C16.7504 11.2101 16.6904 11.2101 16.6404 11.2301C15.6704 11.2801 14.7804 10.9701 14.1104 10.4001C15.1404 9.4801 15.7304 8.1001 15.6104 6.6001C15.5404 5.7901 15.2604 5.0501 14.8404 4.4201C15.2204 4.2301 15.6604 4.1101 16.1104 4.0701C18.0704 3.9001 19.8204 5.3601 19.9904 7.3401Z" fill="#90A3BF"/>
<path d="M21.9902 16.5904C21.9102 17.5604 21.2902 18.4004 20.2502 18.9704C19.2502 19.5204 17.9902 19.7804 16.7402 19.7504C17.4602 19.1004 17.8802 18.2904 17.9602 17.4304C18.0602 16.1904 17.4702 15.0004 16.2902 14.0504C15.6202 13.5204 14.8402 13.1004 13.9902 12.7904C16.2002 12.1504 18.9802 12.5804 20.6902 13.9604C21.6102 14.7004 22.0802 15.6304 21.9902 16.5904Z" fill="#90A3BF"/>
</svg>
