<svg width="48" height="16" viewBox="0 0 48 16" fill="none" xmlns="http://www.w3.org/2000/svg">
<path d="M20.7995 15.7692H16.9111L19.3432 0.280756H23.2313L20.7995 15.7692Z" fill="#00579F"/>
<path d="M34.8949 0.659404C34.1279 0.346017 32.9115 0 31.4074 0C27.5675 0 24.8635 2.10895 24.8469 5.12412C24.815 7.3487 26.7829 8.58429 28.2547 9.32604C29.7591 10.084 30.2704 10.5787 30.2704 11.2543C30.2551 12.2919 29.0548 12.7702 27.9354 12.7702C26.383 12.7702 25.5512 12.5236 24.2871 11.9464L23.7751 11.6989L23.231 15.1757C24.1429 15.6036 25.8231 15.9834 27.5675 16C31.6474 16 34.3036 13.9237 34.335 10.7105C34.3506 8.94739 33.3115 7.59639 31.0712 6.49242C29.7112 5.78374 28.8784 5.30589 28.8784 4.58079C28.8943 3.9216 29.5828 3.24643 31.118 3.24643C32.3821 3.21336 33.3108 3.52631 34.0144 3.83948L34.3661 4.00394L34.8949 0.659404V0.659404Z" fill="#00579F"/>
<path d="M40.0637 10.2822C40.384 9.39239 41.6161 5.94865 41.6161 5.94865C41.6 5.98172 41.9357 5.04243 42.1277 4.46581L42.3995 5.80039C42.3995 5.80039 43.1358 9.5078 43.2957 10.2822C42.688 10.2822 40.8318 10.2822 40.0637 10.2822ZM44.8634 0.280756H41.8558C40.9283 0.280756 40.2236 0.560636 39.8235 1.56584L34.0479 15.769H38.1278C38.1278 15.769 38.7995 13.8573 38.9438 13.4456C39.3914 13.4456 43.3603 13.4456 43.9361 13.4456C44.0478 13.9894 44.4001 15.769 44.4001 15.769H48.0003L44.8634 0.280756V0.280756Z" fill="#00579F"/>
<path d="M13.6634 0.280756L9.85548 10.8424L9.43936 8.70036C8.73535 6.22875 6.52742 3.54339 4.06348 2.20816L7.55143 15.7528H11.6632L17.775 0.280756H13.6634V0.280756Z" fill="#00579F"/>
<path d="M6.31995 0.280756H0.0640009L0 0.593704C4.88004 1.879 8.11199 4.97717 9.43985 8.70101L8.07988 1.5827C7.85598 0.593485 7.16792 0.313387 6.31995 0.280756Z" fill="#F4A622"/>
</svg>
